<svg width="77" height="69" viewBox="0 0 77 69" fill="none" xmlns="http://www.w3.org/2000/svg"><path d="M72 46H4c-2 0-4 2-4 4v4c0 2 2 4 4 4h1v1c0 6 5 10 10 10h46c6 0 10-5 10-10v-1h1c2 0 4-2 4-4v-4c0-2-2-4-4-4Zm-4 13c0 4-3 7-7 7H15c-4 0-7-3-7-7v-1h60v1Zm5-5-1 1H4l-1-1v-4l1-1h68l1 1v4ZM16 38l6 4 5-4 6 4 5-4 6 4 5-4 6 4 5-4 6 4 6-5-2-2-4 3-6-4-5 4-6-4-5 4-6-4-5 4-6-4-5 4-6-4-5 4-5-3-2 2 7 5 5-4ZM71 31v-3C70 13 56 0 38 0S6 13 5 28v3h66ZM38 3c16 0 29 11 30 25H8C9 14 22 3 38 3Z" fill="#81B3D2"/><path d="M38 17a2 2 0 1 0 0-4 2 2 0 0 0 0 4ZM30 12a2 2 0 1 0 0-4 2 2 0 0 0 0 4ZM46 12a2 2 0 1 0 0-4 2 2 0 0 0 0 4Z" fill="#81B3D2"/></svg>